<mxfile host="app.diagrams.net" agent="Mozilla/5.0 (Macintosh; Intel Mac OS X 10_15_7) AppleWebKit/537.36 (KHTML, like Gecko) Chrome/133.0.0.0 Safari/537.36" version="26.0.16">
  <diagram name="第 1 页" id="U_2iYjREWbjY7TveCJ1O">
    <mxGraphModel dx="3458" dy="1427" grid="0" gridSize="10" guides="1" tooltips="1" connect="1" arrows="1" fold="1" page="0" pageScale="1" pageWidth="850" pageHeight="1100" math="0" shadow="0">
      <root>
        <mxCell id="0" />
        <mxCell id="1" parent="0" />
        <mxCell id="DI31YEEPW2Cq-1fsI9T--77" value="" style="rounded=0;whiteSpace=wrap;html=1;dashed=1;dashPattern=12 12;direction=south;" vertex="1" parent="1">
          <mxGeometry x="652" y="288" width="441" height="162" as="geometry" />
        </mxCell>
        <mxCell id="DI31YEEPW2Cq-1fsI9T--59" value="&lt;h3 style=&quot;border-color: var(--iwiki-editor-border); border-style: solid; border-width: 0px; box-sizing: border-box; --tw-border-spacing-x: 0; --tw-border-spacing-y: 0; --tw-translate-x: 0; --tw-translate-y: 0; --tw-rotate: 0; --tw-skew-x: 0; --tw-skew-y: 0; --tw-scale-x: 1; --tw-scale-y: 1; --tw-pan-x: ; --tw-pan-y: ; --tw-pinch-zoom: ; --tw-scroll-snap-strictness: proximity; --tw-gradient-from-position: ; --tw-gradient-via-position: ; --tw-gradient-to-position: ; --tw-ordinal: ; --tw-slashed-zero: ; --tw-numeric-figure: ; --tw-numeric-spacing: ; --tw-numeric-fraction: ; --tw-ring-inset: ; --tw-ring-offset-width: 0px; --tw-ring-offset-color: light-dark(#fff, #000000); --tw-ring-color: rgb(59 130 246 / .5); --tw-ring-offset-shadow: 0 0 #0000; --tw-ring-shadow: 0 0 #0000; --tw-shadow: 0 0 #0000; --tw-shadow-colored: 0 0 #0000; --tw-blur: ; --tw-brightness: ; --tw-contrast: ; --tw-grayscale: ; --tw-hue-rotate: ; --tw-invert: ; --tw-saturate: ; --tw-sepia: ; --tw-drop-shadow: ; --tw-backdrop-blur: ; --tw-backdrop-brightness: ; --tw-backdrop-contrast: ; --tw-backdrop-grayscale: ; --tw-backdrop-hue-rotate: ; --tw-backdrop-invert: ; --tw-backdrop-opacity: ; --tw-backdrop-saturate: ; --tw-backdrop-sepia: ; --tw-contain-size: ; --tw-contain-layout: ; --tw-contain-paint: ; --tw-contain-style: ; font-size: 20px; font-weight: 600; margin: 24px 0px 12px; color: var(--iwiki-markdown-font); line-height: 28px; font-family: -apple-system, &amp;quot;PingFang SC&amp;quot;, &amp;quot;Microsoft YaHei&amp;quot;, &amp;quot;Hiragino Sans GB&amp;quot;, &amp;quot;Source Han Sans SC&amp;quot;, &amp;quot;Helvetica Neue&amp;quot;, Helvetica, Arial, &amp;quot;Segoe UI&amp;quot;; font-style: normal; font-variant-ligatures: normal; font-variant-caps: normal; letter-spacing: normal; orphans: 2; text-align: start; text-indent: 0px; text-transform: none; widows: 2; word-spacing: 0px; -webkit-text-stroke-width: 0px; white-space: normal; background-color: rgb(255, 255, 255); text-decoration-thickness: initial; text-decoration-style: initial; text-decoration-color: initial;&quot; id=&quot;%E5%BC%80%E6%BA%90%E5%88%86%E5%B8%83%E5%BC%8F%E4%BB%BB%E5%8A%A1%E8%B0%83%E5%BA%A6%E6%A1%86%E6%9E%B6&quot; data-sign=&quot;14b707c4649d34d7824eb5814e7515b7834eea852c57fedbfbc6908f5762a55c&quot; data-lines=&quot;1&quot;&gt;&lt;br&gt;&lt;/h3&gt;" style="whiteSpace=wrap;html=1;dashed=1;dashPattern=12 12;" vertex="1" parent="1">
          <mxGeometry x="1265" y="497" width="479" height="541" as="geometry" />
        </mxCell>
        <mxCell id="A8A14IUdDJWX7vTnhN7e-8" value="&lt;h3 style=&quot;border-color: var(--iwiki-editor-border); border-style: solid; border-width: 0px; box-sizing: border-box; --tw-border-spacing-x: 0; --tw-border-spacing-y: 0; --tw-translate-x: 0; --tw-translate-y: 0; --tw-rotate: 0; --tw-skew-x: 0; --tw-skew-y: 0; --tw-scale-x: 1; --tw-scale-y: 1; --tw-pan-x: ; --tw-pan-y: ; --tw-pinch-zoom: ; --tw-scroll-snap-strictness: proximity; --tw-gradient-from-position: ; --tw-gradient-via-position: ; --tw-gradient-to-position: ; --tw-ordinal: ; --tw-slashed-zero: ; --tw-numeric-figure: ; --tw-numeric-spacing: ; --tw-numeric-fraction: ; --tw-ring-inset: ; --tw-ring-offset-width: 0px; --tw-ring-offset-color: light-dark(#fff, #000000); --tw-ring-color: rgb(59 130 246 / .5); --tw-ring-offset-shadow: 0 0 #0000; --tw-ring-shadow: 0 0 #0000; --tw-shadow: 0 0 #0000; --tw-shadow-colored: 0 0 #0000; --tw-blur: ; --tw-brightness: ; --tw-contrast: ; --tw-grayscale: ; --tw-hue-rotate: ; --tw-invert: ; --tw-saturate: ; --tw-sepia: ; --tw-drop-shadow: ; --tw-backdrop-blur: ; --tw-backdrop-brightness: ; --tw-backdrop-contrast: ; --tw-backdrop-grayscale: ; --tw-backdrop-hue-rotate: ; --tw-backdrop-invert: ; --tw-backdrop-opacity: ; --tw-backdrop-saturate: ; --tw-backdrop-sepia: ; --tw-contain-size: ; --tw-contain-layout: ; --tw-contain-paint: ; --tw-contain-style: ; font-size: 20px; font-weight: 600; margin: 24px 0px 12px; color: var(--iwiki-markdown-font); line-height: 28px; font-family: -apple-system, &amp;quot;PingFang SC&amp;quot;, &amp;quot;Microsoft YaHei&amp;quot;, &amp;quot;Hiragino Sans GB&amp;quot;, &amp;quot;Source Han Sans SC&amp;quot;, &amp;quot;Helvetica Neue&amp;quot;, Helvetica, Arial, &amp;quot;Segoe UI&amp;quot;; font-style: normal; font-variant-ligatures: normal; font-variant-caps: normal; letter-spacing: normal; orphans: 2; text-align: start; text-indent: 0px; text-transform: none; widows: 2; word-spacing: 0px; -webkit-text-stroke-width: 0px; white-space: normal; background-color: rgb(255, 255, 255); text-decoration-thickness: initial; text-decoration-style: initial; text-decoration-color: initial;&quot; id=&quot;%E5%BC%80%E6%BA%90%E5%88%86%E5%B8%83%E5%BC%8F%E4%BB%BB%E5%8A%A1%E8%B0%83%E5%BA%A6%E6%A1%86%E6%9E%B6&quot; data-sign=&quot;14b707c4649d34d7824eb5814e7515b7834eea852c57fedbfbc6908f5762a55c&quot; data-lines=&quot;1&quot;&gt;&lt;br&gt;&lt;/h3&gt;" style="whiteSpace=wrap;html=1;dashed=1;dashPattern=12 12;" parent="1" vertex="1">
          <mxGeometry x="652" y="497" width="521" height="569" as="geometry" />
        </mxCell>
        <mxCell id="DI31YEEPW2Cq-1fsI9T--8" value="" style="rounded=0;whiteSpace=wrap;html=1;dashed=1;dashPattern=12 12;" vertex="1" parent="1">
          <mxGeometry x="676" y="573" width="225" height="441" as="geometry" />
        </mxCell>
        <mxCell id="A8A14IUdDJWX7vTnhN7e-1" value="" style="verticalAlign=top;align=left;spacingTop=8;spacingLeft=2;spacingRight=12;shape=cube;size=10;direction=south;fontStyle=4;html=1;whiteSpace=wrap;" parent="1" vertex="1">
          <mxGeometry x="989" y="9" width="188" height="172" as="geometry" />
        </mxCell>
        <mxCell id="A8A14IUdDJWX7vTnhN7e-2" value="浏览器" style="shape=module;align=left;spacingLeft=20;align=center;verticalAlign=top;whiteSpace=wrap;html=1;jettyWidth=23;jettyHeight=6;" parent="1" vertex="1">
          <mxGeometry x="1011" y="64" width="93" height="33" as="geometry" />
        </mxCell>
        <mxCell id="A8A14IUdDJWX7vTnhN7e-4" value="PC" style="text;html=1;align=center;verticalAlign=middle;whiteSpace=wrap;rounded=0;" parent="1" vertex="1">
          <mxGeometry x="1042" y="20" width="82" height="30" as="geometry" />
        </mxCell>
        <mxCell id="A8A14IUdDJWX7vTnhN7e-13" value="" style="group" parent="1" vertex="1" connectable="0">
          <mxGeometry x="703" y="331" width="136" height="91" as="geometry" />
        </mxCell>
        <mxCell id="A8A14IUdDJWX7vTnhN7e-14" value="" style="verticalAlign=top;align=left;spacingTop=8;spacingLeft=2;spacingRight=12;shape=cube;size=10;direction=south;fontStyle=4;html=1;whiteSpace=wrap;gradientColor=none;noLabel=0;container=0;" parent="A8A14IUdDJWX7vTnhN7e-13" vertex="1">
          <mxGeometry width="136" height="91" as="geometry" />
        </mxCell>
        <mxCell id="A8A14IUdDJWX7vTnhN7e-15" value="CLB" style="shape=module;align=left;spacingLeft=20;align=center;verticalAlign=top;whiteSpace=wrap;html=1;jettyWidth=23;jettyHeight=6;" parent="A8A14IUdDJWX7vTnhN7e-13" vertex="1">
          <mxGeometry x="13" y="51" width="93" height="33" as="geometry" />
        </mxCell>
        <mxCell id="A8A14IUdDJWX7vTnhN7e-16" value="容器" style="text;html=1;align=center;verticalAlign=middle;whiteSpace=wrap;rounded=0;" parent="A8A14IUdDJWX7vTnhN7e-13" vertex="1">
          <mxGeometry x="25" y="17" width="82" height="30" as="geometry" />
        </mxCell>
        <mxCell id="6hLQuWw7BLkqEebrmyDW-1" value="企业微信" style="shape=module;align=left;spacingLeft=20;align=center;verticalAlign=top;whiteSpace=wrap;html=1;jettyWidth=23;jettyHeight=6;" parent="1" vertex="1">
          <mxGeometry x="1047" y="118" width="93" height="33" as="geometry" />
        </mxCell>
        <mxCell id="7pGs60NvAt76qRdz5Sl2-1" value="" style="group" parent="1" vertex="1" connectable="0">
          <mxGeometry x="902" y="333" width="136" height="91" as="geometry" />
        </mxCell>
        <mxCell id="7pGs60NvAt76qRdz5Sl2-2" value="" style="verticalAlign=top;align=left;spacingTop=8;spacingLeft=2;spacingRight=12;shape=cube;size=10;direction=south;fontStyle=4;html=1;whiteSpace=wrap;gradientColor=none;noLabel=0;container=0;" parent="7pGs60NvAt76qRdz5Sl2-1" vertex="1">
          <mxGeometry width="134" height="91" as="geometry" />
        </mxCell>
        <mxCell id="7pGs60NvAt76qRdz5Sl2-3" value="CLB" style="shape=module;align=left;spacingLeft=20;align=center;verticalAlign=top;whiteSpace=wrap;html=1;jettyWidth=23;jettyHeight=6;" parent="7pGs60NvAt76qRdz5Sl2-1" vertex="1">
          <mxGeometry x="13" y="51" width="93" height="33" as="geometry" />
        </mxCell>
        <mxCell id="7pGs60NvAt76qRdz5Sl2-4" value="容器" style="text;html=1;align=center;verticalAlign=middle;whiteSpace=wrap;rounded=0;" parent="7pGs60NvAt76qRdz5Sl2-1" vertex="1">
          <mxGeometry x="25" y="17" width="82" height="30" as="geometry" />
        </mxCell>
        <mxCell id="7pGs60NvAt76qRdz5Sl2-5" value="" style="group" parent="1" vertex="1" connectable="0">
          <mxGeometry x="722" y="623" width="136" height="91" as="geometry" />
        </mxCell>
        <mxCell id="7pGs60NvAt76qRdz5Sl2-6" value="" style="verticalAlign=top;align=left;spacingTop=8;spacingLeft=2;spacingRight=12;shape=cube;size=10;direction=south;fontStyle=4;html=1;whiteSpace=wrap;gradientColor=none;noLabel=0;container=0;" parent="7pGs60NvAt76qRdz5Sl2-5" vertex="1">
          <mxGeometry width="136" height="91" as="geometry" />
        </mxCell>
        <mxCell id="7pGs60NvAt76qRdz5Sl2-7" value="Nginx" style="shape=module;align=left;spacingLeft=20;align=center;verticalAlign=top;whiteSpace=wrap;html=1;jettyWidth=23;jettyHeight=6;" parent="7pGs60NvAt76qRdz5Sl2-5" vertex="1">
          <mxGeometry x="13" y="51" width="93" height="33" as="geometry" />
        </mxCell>
        <mxCell id="7pGs60NvAt76qRdz5Sl2-8" value="网关服务器" style="text;html=1;align=center;verticalAlign=middle;whiteSpace=wrap;rounded=0;" parent="7pGs60NvAt76qRdz5Sl2-5" vertex="1">
          <mxGeometry x="25" y="17" width="82" height="30" as="geometry" />
        </mxCell>
        <mxCell id="7pGs60NvAt76qRdz5Sl2-25" value="" style="group" parent="1" vertex="1" connectable="0">
          <mxGeometry x="1322" y="852" width="136" height="91" as="geometry" />
        </mxCell>
        <mxCell id="7pGs60NvAt76qRdz5Sl2-26" value="" style="verticalAlign=top;align=left;spacingTop=8;spacingLeft=2;spacingRight=12;shape=cube;size=10;direction=south;fontStyle=4;html=1;whiteSpace=wrap;gradientColor=none;noLabel=0;container=0;" parent="7pGs60NvAt76qRdz5Sl2-25" vertex="1">
          <mxGeometry width="136" height="91" as="geometry" />
        </mxCell>
        <mxCell id="7pGs60NvAt76qRdz5Sl2-27" value="COS" style="shape=module;align=left;spacingLeft=20;align=center;verticalAlign=top;whiteSpace=wrap;html=1;jettyWidth=23;jettyHeight=6;" parent="7pGs60NvAt76qRdz5Sl2-25" vertex="1">
          <mxGeometry x="13" y="51" width="93" height="33" as="geometry" />
        </mxCell>
        <mxCell id="7pGs60NvAt76qRdz5Sl2-28" value="云对象存储服务器" style="text;html=1;align=center;verticalAlign=middle;whiteSpace=wrap;rounded=0;" parent="7pGs60NvAt76qRdz5Sl2-25" vertex="1">
          <mxGeometry x="25" y="17" width="81" height="30" as="geometry" />
        </mxCell>
        <mxCell id="7pGs60NvAt76qRdz5Sl2-29" value="" style="group" parent="1" vertex="1" connectable="0">
          <mxGeometry x="719" y="742" width="136" height="91" as="geometry" />
        </mxCell>
        <mxCell id="7pGs60NvAt76qRdz5Sl2-30" value="" style="verticalAlign=top;align=left;spacingTop=8;spacingLeft=2;spacingRight=12;shape=cube;size=10;direction=south;fontStyle=4;html=1;whiteSpace=wrap;gradientColor=none;noLabel=0;container=0;" parent="7pGs60NvAt76qRdz5Sl2-29" vertex="1">
          <mxGeometry width="136" height="91" as="geometry" />
        </mxCell>
        <mxCell id="7pGs60NvAt76qRdz5Sl2-31" value="Backend-Serve" style="shape=module;align=left;spacingLeft=20;align=center;verticalAlign=top;whiteSpace=wrap;html=1;jettyWidth=23;jettyHeight=6;" parent="7pGs60NvAt76qRdz5Sl2-29" vertex="1">
          <mxGeometry x="13" y="51" width="97" height="33" as="geometry" />
        </mxCell>
        <mxCell id="7pGs60NvAt76qRdz5Sl2-32" value="Linux 4.14.105-1-tlinux3-0023.1" style="text;html=1;align=center;verticalAlign=middle;whiteSpace=wrap;rounded=0;" parent="7pGs60NvAt76qRdz5Sl2-29" vertex="1">
          <mxGeometry x="1" y="17" width="122" height="30" as="geometry" />
        </mxCell>
        <mxCell id="7pGs60NvAt76qRdz5Sl2-38" value="" style="group" parent="1" vertex="1" connectable="0">
          <mxGeometry x="1322" y="679" width="136" height="91" as="geometry" />
        </mxCell>
        <mxCell id="7pGs60NvAt76qRdz5Sl2-39" value="" style="verticalAlign=top;align=left;spacingTop=8;spacingLeft=2;spacingRight=12;shape=cube;size=10;direction=south;fontStyle=4;html=1;whiteSpace=wrap;gradientColor=none;noLabel=0;container=0;" parent="7pGs60NvAt76qRdz5Sl2-38" vertex="1">
          <mxGeometry width="136" height="91" as="geometry" />
        </mxCell>
        <mxCell id="7pGs60NvAt76qRdz5Sl2-40" value="tdjob" style="shape=module;align=left;spacingLeft=20;align=center;verticalAlign=top;whiteSpace=wrap;html=1;jettyWidth=23;jettyHeight=6;" parent="7pGs60NvAt76qRdz5Sl2-38" vertex="1">
          <mxGeometry x="13" y="51" width="97" height="33" as="geometry" />
        </mxCell>
        <mxCell id="7pGs60NvAt76qRdz5Sl2-41" value="分布式任务调度服务器" style="text;html=1;align=center;verticalAlign=middle;whiteSpace=wrap;rounded=0;" parent="7pGs60NvAt76qRdz5Sl2-38" vertex="1">
          <mxGeometry x="25" y="17" width="82" height="30" as="geometry" />
        </mxCell>
        <mxCell id="DI31YEEPW2Cq-1fsI9T--5" value="服务器集群" style="text;html=1;align=center;verticalAlign=middle;whiteSpace=wrap;rounded=0;fontSize=16;" vertex="1" parent="1">
          <mxGeometry x="652" y="497" width="130" height="48" as="geometry" />
        </mxCell>
        <mxCell id="DI31YEEPW2Cq-1fsI9T--6" value="&lt;h3 style=&quot;border-color: var(--iwiki-editor-border); border-style: solid; border-width: 0px; box-sizing: border-box; --tw-border-spacing-x: 0; --tw-border-spacing-y: 0; --tw-translate-x: 0; --tw-translate-y: 0; --tw-rotate: 0; --tw-skew-x: 0; --tw-skew-y: 0; --tw-scale-x: 1; --tw-scale-y: 1; --tw-pan-x: ; --tw-pan-y: ; --tw-pinch-zoom: ; --tw-scroll-snap-strictness: proximity; --tw-gradient-from-position: ; --tw-gradient-via-position: ; --tw-gradient-to-position: ; --tw-ordinal: ; --tw-slashed-zero: ; --tw-numeric-figure: ; --tw-numeric-spacing: ; --tw-numeric-fraction: ; --tw-ring-inset: ; --tw-ring-offset-width: 0px; --tw-ring-offset-color: light-dark(#fff, #000000); --tw-ring-color: rgb(59 130 246 / .5); --tw-ring-offset-shadow: 0 0 #0000; --tw-ring-shadow: 0 0 #0000; --tw-shadow: 0 0 #0000; --tw-shadow-colored: 0 0 #0000; --tw-blur: ; --tw-brightness: ; --tw-contrast: ; --tw-grayscale: ; --tw-hue-rotate: ; --tw-invert: ; --tw-saturate: ; --tw-sepia: ; --tw-drop-shadow: ; --tw-backdrop-blur: ; --tw-backdrop-brightness: ; --tw-backdrop-contrast: ; --tw-backdrop-grayscale: ; --tw-backdrop-hue-rotate: ; --tw-backdrop-invert: ; --tw-backdrop-opacity: ; --tw-backdrop-saturate: ; --tw-backdrop-sepia: ; --tw-contain-size: ; --tw-contain-layout: ; --tw-contain-paint: ; --tw-contain-style: ; font-size: 20px; font-weight: 600; margin: 24px 0px 12px; color: var(--iwiki-markdown-font); line-height: 28px; font-family: -apple-system, &amp;quot;PingFang SC&amp;quot;, &amp;quot;Microsoft YaHei&amp;quot;, &amp;quot;Hiragino Sans GB&amp;quot;, &amp;quot;Source Han Sans SC&amp;quot;, &amp;quot;Helvetica Neue&amp;quot;, Helvetica, Arial, &amp;quot;Segoe UI&amp;quot;; font-style: normal; font-variant-ligatures: normal; font-variant-caps: normal; letter-spacing: normal; orphans: 2; text-align: start; text-indent: 0px; text-transform: none; widows: 2; word-spacing: 0px; -webkit-text-stroke-width: 0px; white-space: normal; background-color: rgb(255, 255, 255); text-decoration-thickness: initial; text-decoration-style: initial; text-decoration-color: initial;&quot; id=&quot;%E5%BC%80%E6%BA%90%E5%88%86%E5%B8%83%E5%BC%8F%E4%BB%BB%E5%8A%A1%E8%B0%83%E5%BA%A6%E6%A1%86%E6%9E%B6&quot; data-sign=&quot;14b707c4649d34d7824eb5814e7515b7834eea852c57fedbfbc6908f5762a55c&quot; data-lines=&quot;1&quot;&gt;&lt;br&gt;&lt;/h3&gt;" style="whiteSpace=wrap;html=1;aspect=fixed;dashed=1;dashPattern=12 12;" vertex="1" parent="1">
          <mxGeometry x="-912" y="904" width="325" height="325" as="geometry" />
        </mxCell>
        <mxCell id="DI31YEEPW2Cq-1fsI9T--7" value="服务器集群" style="text;html=1;align=center;verticalAlign=middle;whiteSpace=wrap;rounded=0;" vertex="1" parent="1">
          <mxGeometry x="-912" y="904" width="88" height="30" as="geometry" />
        </mxCell>
        <mxCell id="DI31YEEPW2Cq-1fsI9T--9" value="" style="group" vertex="1" connectable="0" parent="1">
          <mxGeometry x="715" y="860" width="136" height="91" as="geometry" />
        </mxCell>
        <mxCell id="DI31YEEPW2Cq-1fsI9T--10" value="" style="verticalAlign=top;align=left;spacingTop=8;spacingLeft=2;spacingRight=12;shape=cube;size=10;direction=south;fontStyle=4;html=1;whiteSpace=wrap;gradientColor=none;noLabel=0;container=0;" vertex="1" parent="DI31YEEPW2Cq-1fsI9T--9">
          <mxGeometry width="136" height="91" as="geometry" />
        </mxCell>
        <mxCell id="DI31YEEPW2Cq-1fsI9T--11" value="Frontend-Serve" style="shape=module;align=left;spacingLeft=20;align=center;verticalAlign=top;whiteSpace=wrap;html=1;jettyWidth=23;jettyHeight=6;" vertex="1" parent="DI31YEEPW2Cq-1fsI9T--9">
          <mxGeometry x="13" y="51" width="97" height="33" as="geometry" />
        </mxCell>
        <mxCell id="DI31YEEPW2Cq-1fsI9T--12" value="Linux 4.14.105-1-tlinux3-0023.1" style="text;html=1;align=center;verticalAlign=middle;whiteSpace=wrap;rounded=0;" vertex="1" parent="DI31YEEPW2Cq-1fsI9T--9">
          <mxGeometry x="3" y="17" width="120" height="30" as="geometry" />
        </mxCell>
        <mxCell id="DI31YEEPW2Cq-1fsI9T--14" value="生产环境&lt;span style=&quot;color: rgba(0, 0, 0, 0); font-family: monospace; font-size: 0px; text-align: start; text-wrap-mode: nowrap;&quot;&gt;%3CmxGraphModel%3E%3Croot%3E%3CmxCell%20id%3D%220%22%2F%3E%3CmxCell%20id%3D%221%22%20parent%3D%220%22%2F%3E%3CmxCell%20id%3D%222%22%20value%3D%22%E6%9C%8D%E5%8A%A1%E5%99%A8%E9%9B%86%E7%BE%A4%22%20style%3D%22text%3Bhtml%3D1%3Balign%3Dcenter%3BverticalAlign%3Dmiddle%3BwhiteSpace%3Dwrap%3Brounded%3D0%3B%22%20vertex%3D%221%22%20parent%3D%221%22%3E%3CmxGeometry%20x%3D%22550%22%20y%3D%22424%22%20width%3D%2288%22%20height%3D%2230%22%20as%3D%22geometry%22%2F%3E%3C%2FmxCell%3E%3C%2Froot%3E%3C%2FmxGraphModel%3E&lt;/span&gt;" style="text;html=1;align=center;verticalAlign=middle;whiteSpace=wrap;rounded=0;" vertex="1" parent="1">
          <mxGeometry x="676" y="573" width="88" height="30" as="geometry" />
        </mxCell>
        <mxCell id="DI31YEEPW2Cq-1fsI9T--16" value="" style="rounded=0;whiteSpace=wrap;html=1;dashed=1;dashPattern=12 12;" vertex="1" parent="1">
          <mxGeometry x="926" y="573" width="225" height="441" as="geometry" />
        </mxCell>
        <mxCell id="DI31YEEPW2Cq-1fsI9T--17" value="" style="group" vertex="1" connectable="0" parent="1">
          <mxGeometry x="968" y="742" width="136" height="91" as="geometry" />
        </mxCell>
        <mxCell id="DI31YEEPW2Cq-1fsI9T--18" value="" style="verticalAlign=top;align=left;spacingTop=8;spacingLeft=2;spacingRight=12;shape=cube;size=10;direction=south;fontStyle=4;html=1;whiteSpace=wrap;gradientColor=none;noLabel=0;container=0;" vertex="1" parent="DI31YEEPW2Cq-1fsI9T--17">
          <mxGeometry width="136" height="91" as="geometry" />
        </mxCell>
        <mxCell id="DI31YEEPW2Cq-1fsI9T--19" value="Backend-Serve" style="shape=module;align=left;spacingLeft=20;align=center;verticalAlign=top;whiteSpace=wrap;html=1;jettyWidth=23;jettyHeight=6;" vertex="1" parent="DI31YEEPW2Cq-1fsI9T--17">
          <mxGeometry x="13" y="51" width="97" height="33" as="geometry" />
        </mxCell>
        <mxCell id="DI31YEEPW2Cq-1fsI9T--20" value="Linux 4.14.105-1-tlinux3-0023.1" style="text;html=1;align=center;verticalAlign=middle;whiteSpace=wrap;rounded=0;" vertex="1" parent="DI31YEEPW2Cq-1fsI9T--17">
          <mxGeometry x="1" y="17" width="122" height="30" as="geometry" />
        </mxCell>
        <mxCell id="DI31YEEPW2Cq-1fsI9T--21" value="" style="group" vertex="1" connectable="0" parent="1">
          <mxGeometry x="965" y="860" width="136" height="91" as="geometry" />
        </mxCell>
        <mxCell id="DI31YEEPW2Cq-1fsI9T--22" value="" style="verticalAlign=top;align=left;spacingTop=8;spacingLeft=2;spacingRight=12;shape=cube;size=10;direction=south;fontStyle=4;html=1;whiteSpace=wrap;gradientColor=none;noLabel=0;container=0;" vertex="1" parent="DI31YEEPW2Cq-1fsI9T--21">
          <mxGeometry width="136" height="91" as="geometry" />
        </mxCell>
        <mxCell id="DI31YEEPW2Cq-1fsI9T--23" value="Frontend-Serve" style="shape=module;align=left;spacingLeft=20;align=center;verticalAlign=top;whiteSpace=wrap;html=1;jettyWidth=23;jettyHeight=6;" vertex="1" parent="DI31YEEPW2Cq-1fsI9T--21">
          <mxGeometry x="13" y="51" width="97" height="33" as="geometry" />
        </mxCell>
        <mxCell id="DI31YEEPW2Cq-1fsI9T--24" value="Linux 4.14.105-1-tlinux3-0023.1" style="text;html=1;align=center;verticalAlign=middle;whiteSpace=wrap;rounded=0;" vertex="1" parent="DI31YEEPW2Cq-1fsI9T--21">
          <mxGeometry x="3" y="17" width="120" height="30" as="geometry" />
        </mxCell>
        <mxCell id="DI31YEEPW2Cq-1fsI9T--25" value="测试环境&lt;span style=&quot;color: rgba(0, 0, 0, 0); font-family: monospace; font-size: 0px; text-align: start; text-wrap-mode: nowrap;&quot;&gt;%3CmxGraphModel%3E%3Croot%3E%3CmxCell%20id%3D%220%22%2F%3E%3CmxCell%20id%3D%221%22%20parent%3D%220%22%2F%3E%3CmxCell%20id%3D%222%22%20value%3D%22%E6%9C%8D%E5%8A%A1%E5%99%A8%E9%9B%86%E7%BE%A4%22%20style%3D%22text%3Bhtml%3D1%3Balign%3Dcenter%3BverticalAlign%3Dmiddle%3BwhiteSpace%3Dwrap%3Brounded%3D0%3B%22%20vertex%3D%221%22%20parent%3D%221%22%3E%3CmxGeometry%20x%3D%22550%22%20y%3D%22424%22%20width%3D%2288%22%20height%3D%2230%22%20as%3D%22geometry%22%2F%3E%3C%2FmxCell%3E%3C%2Froot%3E%3C%2FmxGraphModel%3E&lt;/span&gt;" style="text;html=1;align=center;verticalAlign=middle;whiteSpace=wrap;rounded=0;" vertex="1" parent="1">
          <mxGeometry x="926" y="573" width="88" height="30" as="geometry" />
        </mxCell>
        <mxCell id="DI31YEEPW2Cq-1fsI9T--26" value="" style="rounded=0;whiteSpace=wrap;html=1;dashed=1;dashPattern=12 12;direction=south;" vertex="1" parent="1">
          <mxGeometry x="1213" y="1124" width="441" height="162" as="geometry" />
        </mxCell>
        <mxCell id="DI31YEEPW2Cq-1fsI9T--35" value="Redis集群" style="text;html=1;align=center;verticalAlign=middle;whiteSpace=wrap;rounded=0;" vertex="1" parent="1">
          <mxGeometry x="1213" y="1124" width="88" height="30" as="geometry" />
        </mxCell>
        <mxCell id="DI31YEEPW2Cq-1fsI9T--49" value="" style="rounded=0;whiteSpace=wrap;html=1;dashed=1;dashPattern=12 12;direction=south;" vertex="1" parent="1">
          <mxGeometry x="627" y="1124" width="441" height="162" as="geometry" />
        </mxCell>
        <mxCell id="DI31YEEPW2Cq-1fsI9T--50" value="Mysql集群" style="text;html=1;align=center;verticalAlign=middle;whiteSpace=wrap;rounded=0;" vertex="1" parent="1">
          <mxGeometry x="628" y="1124" width="88" height="30" as="geometry" />
        </mxCell>
        <mxCell id="DI31YEEPW2Cq-1fsI9T--51" value="" style="group" vertex="1" connectable="0" parent="1">
          <mxGeometry x="679" y="1173" width="136" height="91" as="geometry" />
        </mxCell>
        <mxCell id="DI31YEEPW2Cq-1fsI9T--52" value="" style="verticalAlign=top;align=left;spacingTop=8;spacingLeft=2;spacingRight=12;shape=cube;size=10;direction=south;fontStyle=4;html=1;whiteSpace=wrap;gradientColor=none;noLabel=0;container=0;" vertex="1" parent="DI31YEEPW2Cq-1fsI9T--51">
          <mxGeometry width="136" height="91" as="geometry" />
        </mxCell>
        <mxCell id="DI31YEEPW2Cq-1fsI9T--53" value="Mysql" style="shape=module;align=left;spacingLeft=20;align=center;verticalAlign=top;whiteSpace=wrap;html=1;jettyWidth=23;jettyHeight=6;" vertex="1" parent="DI31YEEPW2Cq-1fsI9T--51">
          <mxGeometry x="13" y="51" width="94" height="33.35" as="geometry" />
        </mxCell>
        <mxCell id="DI31YEEPW2Cq-1fsI9T--54" value="数据库服务器" style="text;html=1;align=center;verticalAlign=middle;whiteSpace=wrap;rounded=0;" vertex="1" parent="DI31YEEPW2Cq-1fsI9T--51">
          <mxGeometry x="25" y="17" width="82" height="30" as="geometry" />
        </mxCell>
        <mxCell id="DI31YEEPW2Cq-1fsI9T--55" value="" style="group" vertex="1" connectable="0" parent="1">
          <mxGeometry x="887" y="1175" width="136" height="91" as="geometry" />
        </mxCell>
        <mxCell id="DI31YEEPW2Cq-1fsI9T--56" value="" style="verticalAlign=top;align=left;spacingTop=8;spacingLeft=2;spacingRight=12;shape=cube;size=10;direction=south;fontStyle=4;html=1;whiteSpace=wrap;gradientColor=none;noLabel=0;container=0;" vertex="1" parent="DI31YEEPW2Cq-1fsI9T--55">
          <mxGeometry width="136" height="91" as="geometry" />
        </mxCell>
        <mxCell id="DI31YEEPW2Cq-1fsI9T--57" value="Mysql" style="shape=module;align=left;spacingLeft=20;align=center;verticalAlign=top;whiteSpace=wrap;html=1;jettyWidth=23;jettyHeight=6;" vertex="1" parent="DI31YEEPW2Cq-1fsI9T--55">
          <mxGeometry x="13" y="51" width="94" height="33.35" as="geometry" />
        </mxCell>
        <mxCell id="DI31YEEPW2Cq-1fsI9T--58" value="数据库服务器" style="text;html=1;align=center;verticalAlign=middle;whiteSpace=wrap;rounded=0;" vertex="1" parent="DI31YEEPW2Cq-1fsI9T--55">
          <mxGeometry x="25" y="17" width="82" height="30" as="geometry" />
        </mxCell>
        <mxCell id="DI31YEEPW2Cq-1fsI9T--60" value="其他服务" style="text;html=1;align=center;verticalAlign=middle;whiteSpace=wrap;rounded=0;fontSize=16;" vertex="1" parent="1">
          <mxGeometry x="1254" y="497" width="130" height="48" as="geometry" />
        </mxCell>
        <mxCell id="DI31YEEPW2Cq-1fsI9T--62" value="" style="group" vertex="1" connectable="0" parent="1">
          <mxGeometry x="963" y="627" width="136" height="91" as="geometry" />
        </mxCell>
        <mxCell id="DI31YEEPW2Cq-1fsI9T--63" value="" style="verticalAlign=top;align=left;spacingTop=8;spacingLeft=2;spacingRight=12;shape=cube;size=10;direction=south;fontStyle=4;html=1;whiteSpace=wrap;gradientColor=none;noLabel=0;container=0;" vertex="1" parent="DI31YEEPW2Cq-1fsI9T--62">
          <mxGeometry width="136" height="91" as="geometry" />
        </mxCell>
        <mxCell id="DI31YEEPW2Cq-1fsI9T--64" value="Nginx" style="shape=module;align=left;spacingLeft=20;align=center;verticalAlign=top;whiteSpace=wrap;html=1;jettyWidth=23;jettyHeight=6;" vertex="1" parent="DI31YEEPW2Cq-1fsI9T--62">
          <mxGeometry x="13" y="51" width="93" height="33" as="geometry" />
        </mxCell>
        <mxCell id="DI31YEEPW2Cq-1fsI9T--65" value="网关服务器" style="text;html=1;align=center;verticalAlign=middle;whiteSpace=wrap;rounded=0;" vertex="1" parent="DI31YEEPW2Cq-1fsI9T--62">
          <mxGeometry x="25" y="17" width="82" height="30" as="geometry" />
        </mxCell>
        <mxCell id="DI31YEEPW2Cq-1fsI9T--66" value="" style="group" vertex="1" connectable="0" parent="1">
          <mxGeometry x="1540" y="568" width="136" height="91" as="geometry" />
        </mxCell>
        <mxCell id="DI31YEEPW2Cq-1fsI9T--67" value="" style="verticalAlign=top;align=left;spacingTop=8;spacingLeft=2;spacingRight=12;shape=cube;size=10;direction=south;fontStyle=4;html=1;whiteSpace=wrap;gradientColor=none;noLabel=0;container=0;" vertex="1" parent="DI31YEEPW2Cq-1fsI9T--66">
          <mxGeometry width="136" height="91" as="geometry" />
        </mxCell>
        <mxCell id="DI31YEEPW2Cq-1fsI9T--68" value="stat-python" style="shape=module;align=left;spacingLeft=20;align=center;verticalAlign=top;whiteSpace=wrap;html=1;jettyWidth=23;jettyHeight=6;" vertex="1" parent="DI31YEEPW2Cq-1fsI9T--66">
          <mxGeometry x="13" y="51" width="93" height="33" as="geometry" />
        </mxCell>
        <mxCell id="DI31YEEPW2Cq-1fsI9T--69" value="统计计算服务器" style="text;html=1;align=center;verticalAlign=middle;whiteSpace=wrap;rounded=0;" vertex="1" parent="DI31YEEPW2Cq-1fsI9T--66">
          <mxGeometry x="25" y="17" width="82" height="30" as="geometry" />
        </mxCell>
        <mxCell id="DI31YEEPW2Cq-1fsI9T--70" value="" style="group" vertex="1" connectable="0" parent="1">
          <mxGeometry x="1543" y="761" width="136" height="91" as="geometry" />
        </mxCell>
        <mxCell id="DI31YEEPW2Cq-1fsI9T--71" value="" style="verticalAlign=top;align=left;spacingTop=8;spacingLeft=2;spacingRight=12;shape=cube;size=10;direction=south;fontStyle=4;html=1;whiteSpace=wrap;gradientColor=none;noLabel=0;container=0;" vertex="1" parent="DI31YEEPW2Cq-1fsI9T--70">
          <mxGeometry width="136" height="91" as="geometry" />
        </mxCell>
        <mxCell id="DI31YEEPW2Cq-1fsI9T--72" value="highcharts" style="shape=module;align=left;spacingLeft=20;align=center;verticalAlign=top;whiteSpace=wrap;html=1;jettyWidth=23;jettyHeight=6;" vertex="1" parent="DI31YEEPW2Cq-1fsI9T--70">
          <mxGeometry x="13" y="51" width="93" height="33" as="geometry" />
        </mxCell>
        <mxCell id="DI31YEEPW2Cq-1fsI9T--73" value="图片生成服务器" style="text;html=1;align=center;verticalAlign=middle;whiteSpace=wrap;rounded=0;" vertex="1" parent="DI31YEEPW2Cq-1fsI9T--70">
          <mxGeometry x="25" y="17" width="82" height="30" as="geometry" />
        </mxCell>
        <mxCell id="DI31YEEPW2Cq-1fsI9T--46" value="" style="verticalAlign=top;align=left;spacingTop=8;spacingLeft=2;spacingRight=12;shape=cube;size=10;direction=south;fontStyle=4;html=1;whiteSpace=wrap;gradientColor=none;noLabel=0;container=0;" vertex="1" parent="1">
          <mxGeometry x="1478" y="1171" width="136" height="91" as="geometry" />
        </mxCell>
        <mxCell id="DI31YEEPW2Cq-1fsI9T--48" value="缓存服务器" style="text;html=1;align=center;verticalAlign=middle;whiteSpace=wrap;rounded=0;" vertex="1" parent="1">
          <mxGeometry x="1503" y="1188" width="82" height="30" as="geometry" />
        </mxCell>
        <mxCell id="DI31YEEPW2Cq-1fsI9T--47" value="Redis" style="shape=module;align=left;spacingLeft=20;align=center;verticalAlign=top;whiteSpace=wrap;html=1;jettyWidth=23;jettyHeight=6;" vertex="1" parent="1">
          <mxGeometry x="1491" y="1222" width="94" height="33.35" as="geometry" />
        </mxCell>
        <mxCell id="DI31YEEPW2Cq-1fsI9T--78" value="负载均衡集群" style="text;html=1;align=center;verticalAlign=middle;whiteSpace=wrap;rounded=0;" vertex="1" parent="1">
          <mxGeometry x="652" y="288" width="88" height="30" as="geometry" />
        </mxCell>
        <mxCell id="DI31YEEPW2Cq-1fsI9T--80" value="" style="rounded=0;whiteSpace=wrap;html=1;dashed=1;dashPattern=12 12;direction=south;" vertex="1" parent="1">
          <mxGeometry x="1190" y="288" width="441" height="162" as="geometry" />
        </mxCell>
        <mxCell id="DI31YEEPW2Cq-1fsI9T--81" value="" style="group" vertex="1" connectable="0" parent="1">
          <mxGeometry x="1241" y="335" width="136" height="91" as="geometry" />
        </mxCell>
        <mxCell id="DI31YEEPW2Cq-1fsI9T--82" value="" style="verticalAlign=top;align=left;spacingTop=8;spacingLeft=2;spacingRight=12;shape=cube;size=10;direction=south;fontStyle=4;html=1;whiteSpace=wrap;gradientColor=none;noLabel=0;container=0;" vertex="1" parent="DI31YEEPW2Cq-1fsI9T--81">
          <mxGeometry width="136" height="91" as="geometry" />
        </mxCell>
        <mxCell id="DI31YEEPW2Cq-1fsI9T--83" value="WAF" style="shape=module;align=left;spacingLeft=20;align=center;verticalAlign=top;whiteSpace=wrap;html=1;jettyWidth=23;jettyHeight=6;" vertex="1" parent="DI31YEEPW2Cq-1fsI9T--81">
          <mxGeometry x="13" y="51" width="93" height="33" as="geometry" />
        </mxCell>
        <mxCell id="DI31YEEPW2Cq-1fsI9T--84" value="容器" style="text;html=1;align=center;verticalAlign=middle;whiteSpace=wrap;rounded=0;" vertex="1" parent="DI31YEEPW2Cq-1fsI9T--81">
          <mxGeometry x="25" y="17" width="82" height="30" as="geometry" />
        </mxCell>
        <mxCell id="DI31YEEPW2Cq-1fsI9T--85" value="" style="group" vertex="1" connectable="0" parent="1">
          <mxGeometry x="1440" y="369" width="136" height="91" as="geometry" />
        </mxCell>
        <mxCell id="DI31YEEPW2Cq-1fsI9T--86" value="" style="verticalAlign=top;align=left;spacingTop=8;spacingLeft=2;spacingRight=12;shape=cube;size=10;direction=south;fontStyle=4;html=1;whiteSpace=wrap;gradientColor=none;noLabel=0;container=0;" vertex="1" parent="DI31YEEPW2Cq-1fsI9T--85">
          <mxGeometry x="16" y="-33" width="136" height="91" as="geometry" />
        </mxCell>
        <mxCell id="DI31YEEPW2Cq-1fsI9T--87" value="WAF" style="shape=module;align=left;spacingLeft=20;align=center;verticalAlign=top;whiteSpace=wrap;html=1;jettyWidth=23;jettyHeight=6;" vertex="1" parent="DI31YEEPW2Cq-1fsI9T--85">
          <mxGeometry x="29" y="18" width="93" height="33" as="geometry" />
        </mxCell>
        <mxCell id="DI31YEEPW2Cq-1fsI9T--88" value="容器" style="text;html=1;align=center;verticalAlign=middle;whiteSpace=wrap;rounded=0;" vertex="1" parent="DI31YEEPW2Cq-1fsI9T--85">
          <mxGeometry x="41" y="-16" width="82" height="30" as="geometry" />
        </mxCell>
        <mxCell id="DI31YEEPW2Cq-1fsI9T--89" value="网络安全服务集群" style="text;html=1;align=center;verticalAlign=middle;whiteSpace=wrap;rounded=0;" vertex="1" parent="1">
          <mxGeometry x="1190" y="288" width="88" height="30" as="geometry" />
        </mxCell>
        <mxCell id="DI31YEEPW2Cq-1fsI9T--37" value="" style="verticalAlign=top;align=left;spacingTop=8;spacingLeft=2;spacingRight=12;shape=cube;size=10;direction=south;fontStyle=4;html=1;whiteSpace=wrap;gradientColor=none;noLabel=0;container=0;" vertex="1" parent="1">
          <mxGeometry x="1285" y="1171" width="136" height="91" as="geometry" />
        </mxCell>
        <mxCell id="DI31YEEPW2Cq-1fsI9T--38" value="Redis" style="shape=module;align=left;spacingLeft=20;align=center;verticalAlign=top;whiteSpace=wrap;html=1;jettyWidth=23;jettyHeight=6;" vertex="1" parent="1">
          <mxGeometry x="1298" y="1222" width="94" height="33.35" as="geometry" />
        </mxCell>
        <mxCell id="DI31YEEPW2Cq-1fsI9T--39" value="缓存服务器" style="text;html=1;align=center;verticalAlign=middle;whiteSpace=wrap;rounded=0;" vertex="1" parent="1">
          <mxGeometry x="1310" y="1188" width="82" height="30" as="geometry" />
        </mxCell>
        <mxCell id="DI31YEEPW2Cq-1fsI9T--93" value="" style="endArrow=classic;startArrow=classic;html=1;rounded=0;entryX=0.5;entryY=1;entryDx=0;entryDy=0;exitX=0.5;exitY=0;exitDx=0;exitDy=0;" edge="1" parent="1" source="DI31YEEPW2Cq-1fsI9T--77" target="DI31YEEPW2Cq-1fsI9T--80">
          <mxGeometry width="50" height="50" relative="1" as="geometry">
            <mxPoint x="1047" y="819" as="sourcePoint" />
            <mxPoint x="1097" y="769" as="targetPoint" />
          </mxGeometry>
        </mxCell>
        <mxCell id="DI31YEEPW2Cq-1fsI9T--94" value="" style="endArrow=classic;startArrow=classic;html=1;rounded=0;entryX=1;entryY=0.5;entryDx=0;entryDy=0;exitX=0.423;exitY=0.012;exitDx=0;exitDy=0;exitPerimeter=0;" edge="1" parent="1" source="A8A14IUdDJWX7vTnhN7e-8" target="DI31YEEPW2Cq-1fsI9T--77">
          <mxGeometry width="50" height="50" relative="1" as="geometry">
            <mxPoint x="1103" y="379" as="sourcePoint" />
            <mxPoint x="1200" y="379" as="targetPoint" />
          </mxGeometry>
        </mxCell>
        <mxCell id="DI31YEEPW2Cq-1fsI9T--95" value="" style="endArrow=classic;startArrow=classic;html=1;rounded=0;entryX=0;entryY=0.5;entryDx=0;entryDy=0;exitX=1.012;exitY=0.479;exitDx=0;exitDy=0;exitPerimeter=0;" edge="1" parent="1" source="A8A14IUdDJWX7vTnhN7e-8" target="DI31YEEPW2Cq-1fsI9T--59">
          <mxGeometry width="50" height="50" relative="1" as="geometry">
            <mxPoint x="1103" y="379" as="sourcePoint" />
            <mxPoint x="1200" y="379" as="targetPoint" />
          </mxGeometry>
        </mxCell>
        <mxCell id="DI31YEEPW2Cq-1fsI9T--96" value="" style="endArrow=classic;startArrow=classic;html=1;rounded=0;entryX=0;entryY=0.5;entryDx=0;entryDy=0;exitX=0.38;exitY=0.993;exitDx=0;exitDy=0;exitPerimeter=0;" edge="1" parent="1" source="A8A14IUdDJWX7vTnhN7e-8" target="DI31YEEPW2Cq-1fsI9T--49">
          <mxGeometry width="50" height="50" relative="1" as="geometry">
            <mxPoint x="1189" y="780" as="sourcePoint" />
            <mxPoint x="1306" y="778" as="targetPoint" />
          </mxGeometry>
        </mxCell>
        <mxCell id="DI31YEEPW2Cq-1fsI9T--97" value="" style="endArrow=classic;startArrow=classic;html=1;rounded=0;entryX=0.5;entryY=0;entryDx=0;entryDy=0;exitX=0;exitY=1;exitDx=0;exitDy=0;strokeColor=default;" edge="1" parent="1" source="DI31YEEPW2Cq-1fsI9T--59" target="DI31YEEPW2Cq-1fsI9T--49">
          <mxGeometry width="50" height="50" relative="1" as="geometry">
            <mxPoint x="860" y="1072" as="sourcePoint" />
            <mxPoint x="857" y="1134" as="targetPoint" />
          </mxGeometry>
        </mxCell>
        <mxCell id="DI31YEEPW2Cq-1fsI9T--98" value="" style="endArrow=classic;startArrow=classic;html=1;rounded=0;entryX=-0.012;entryY=0.334;entryDx=0;entryDy=0;exitX=0.5;exitY=1;exitDx=0;exitDy=0;strokeColor=default;entryPerimeter=0;" edge="1" parent="1" source="DI31YEEPW2Cq-1fsI9T--59" target="DI31YEEPW2Cq-1fsI9T--26">
          <mxGeometry width="50" height="50" relative="1" as="geometry">
            <mxPoint x="1306" y="1048" as="sourcePoint" />
            <mxPoint x="1078" y="1215" as="targetPoint" />
          </mxGeometry>
        </mxCell>
        <mxCell id="DI31YEEPW2Cq-1fsI9T--100" value="" style="verticalAlign=top;align=left;spacingTop=8;spacingLeft=2;spacingRight=12;shape=cube;size=10;direction=south;fontStyle=4;html=1;whiteSpace=wrap;" vertex="1" parent="1">
          <mxGeometry x="1355" y="9" width="188" height="172" as="geometry" />
        </mxCell>
        <mxCell id="DI31YEEPW2Cq-1fsI9T--101" value="浏览器" style="shape=module;align=left;spacingLeft=20;align=center;verticalAlign=top;whiteSpace=wrap;html=1;jettyWidth=23;jettyHeight=6;" vertex="1" parent="1">
          <mxGeometry x="1377" y="64" width="93" height="33" as="geometry" />
        </mxCell>
        <mxCell id="DI31YEEPW2Cq-1fsI9T--102" value="移动端" style="text;html=1;align=center;verticalAlign=middle;whiteSpace=wrap;rounded=0;" vertex="1" parent="1">
          <mxGeometry x="1408" y="20" width="82" height="30" as="geometry" />
        </mxCell>
        <mxCell id="DI31YEEPW2Cq-1fsI9T--103" value="企业微信" style="shape=module;align=left;spacingLeft=20;align=center;verticalAlign=top;whiteSpace=wrap;html=1;jettyWidth=23;jettyHeight=6;" vertex="1" parent="1">
          <mxGeometry x="1413" y="118" width="93" height="33" as="geometry" />
        </mxCell>
        <mxCell id="DI31YEEPW2Cq-1fsI9T--104" value="" style="endArrow=classic;startArrow=classic;html=1;rounded=0;entryX=0;entryY=0.5;entryDx=0;entryDy=0;exitX=0;exitY=0;exitDx=172;exitDy=99;exitPerimeter=0;curved=0;jumpStyle=none;" edge="1" parent="1" source="A8A14IUdDJWX7vTnhN7e-1" target="DI31YEEPW2Cq-1fsI9T--80">
          <mxGeometry width="50" height="50" relative="1" as="geometry">
            <mxPoint x="1103" y="379" as="sourcePoint" />
            <mxPoint x="1200" y="379" as="targetPoint" />
          </mxGeometry>
        </mxCell>
        <mxCell id="DI31YEEPW2Cq-1fsI9T--105" value="" style="endArrow=classic;startArrow=classic;html=1;rounded=0;entryX=0;entryY=0;entryDx=172;entryDy=99;exitX=0;exitY=0.5;exitDx=0;exitDy=0;entryPerimeter=0;" edge="1" parent="1" source="DI31YEEPW2Cq-1fsI9T--80" target="DI31YEEPW2Cq-1fsI9T--100">
          <mxGeometry width="50" height="50" relative="1" as="geometry">
            <mxPoint x="1088" y="191" as="sourcePoint" />
            <mxPoint x="1421" y="298" as="targetPoint" />
          </mxGeometry>
        </mxCell>
      </root>
    </mxGraphModel>
  </diagram>
</mxfile>
